<svg xmlns="http://www.w3.org/2000/svg" width="56" height="56" viewBox="0 0 56 56">
    <g fill="none" fill-rule="evenodd">
        <circle cx="28" cy="28" r="28" fill="#979797"/>
        <path fill="#5A5A5A" d="M28 56c15.464 0 28-12.536 28-28L40.58 12l-24.866 1.008L15.044 44l11.139 11.942c.6.038 1.206.058 1.817.058z"/>
        <path fill="#FFF" d="M15 12h25.6v32H15V12zm9.6 22.4v3.2h11.733v-3.2H24.6zm-5.333 0v3.2h3.2v-3.2h-3.2zm5.333-8.533v3.2h11.733v-3.2H24.6zm-5.333 0v3.2h3.2v-3.2h-3.2zm5.333-8.534v3.2h11.733v-3.2H24.6zm-5.333 0v3.2h3.2v-3.2h-3.2z"/>
    </g>
</svg>
