<svg xmlns="http://www.w3.org/2000/svg" width="56" height="56" viewBox="0 0 56 56">
    <g fill="none" fill-rule="evenodd">
        <circle cx="28" cy="28" r="28" fill="#979797"/>
        <path fill="#5A5A5A" d="M28 56c12.253 0 22.667-7.87 26.464-18.83l-16.19-17.29h-3.32l-4.467-7.197-10.204 13.224c-1.83-.165-3.037-.114-3.622.153-.586.267-1.126 1-1.621 2.2l5.913 6.912-5.075 6.924L28 56z"/>
        <path fill="#FFF" d="M24.513 43l-8.648-.865L15 33.487a4.324 4.324 0 1 0 0-5.19l.865-8.648 8.648-.865a4.324 4.324 0 1 1 5.19 0l8.648.865.865 8.648a4.324 4.324 0 1 1 0 5.19l-.865 8.648-8.648.865a4.324 4.324 0 1 0-5.19 0z"/>
    </g>
</svg>
