<svg xmlns="http://www.w3.org/2000/svg" width="56" height="56" viewBox="0 0 56 56">
    <g fill="none" fill-rule="evenodd">
        <circle cx="28" cy="28" r="28" fill="#979797"/>
        <path fill="#5A5A5A" d="M28 56c14.008 0 25.614-10.287 27.675-23.718L44 20.202 28 21.6l-10.197-6.545v11.652L12 41.906l13.369 13.972c.866.08 1.744.122 2.631.122z"/>
        <path fill="#FFF" d="M12 20.153l3.91-1.182c.04-.89.04-2.545 0-4.964 1.938-.11 6.488 1.105 12.09 6.858 5.852-2.86 11.185-3.097 16-.712v21.75c-4.764-1.397-10.968-1.753-16.209.838C22.163 39.526 16.9 39.247 12 41.902v-21.75zm6.266-3.34v20.818c2.678-.475 5.774.365 9.29 2.519v-5.177-11.822c-3.471-3.605-6.378-5.717-8.719-6.337h-.57z"/>
    </g>
</svg>
