<svg xmlns="http://www.w3.org/2000/svg" width="56" height="56" viewBox="0 0 56 56">
    <g fill="none" fill-rule="evenodd">
        <circle cx="28" cy="28" r="28" fill="#979797"/>
        <path fill="#5A5A5A" d="M32.375 55.66c11.993-1.882 21.46-11.376 23.3-23.383L37.284 12.62l-6.386 8.014-5.087-2.712-5.372 4.325 5.372 7.352-4.493 4.54-6.327 1.363L32.375 55.66z"/>
        <path fill="#FFF" d="M42 24.68v3.018h-6c-.584 0-1.8-1.207-1.8-1.207l-1.8-2.416s-1.858 3.385-2.4 4.227c-.542.842 0 1.207 0 1.207s2.556 2.361 3.6 3.623 0 3.623 0 3.623L30.6 44h-3s2.393-6.158 3-7.85c.607-1.69-.6-2.414-.6-2.414s-3.058-2.063-4.8-3.623-.6-3.622-.6-3.622l3.6-6.038s-.547-.193-1.2-.604c-.653-.41-1.8 0-1.8 0l-4.8 2.415-1.2-2.415s3.804-1.974 4.8-2.415c.904-.4 2.2-.832 3.6-.604 2.73.445 6.095 2.953 6.6 3.623.505.67 1.406 2.804 1.8 3.622.393.817 1.197.605 1.2.604H42zm-19.8 7.848c.865 0 1.8-1.207 1.8-1.207l2.4 1.811s-.661.75-1.2 1.208c-1.553 1.322-2.996 1.208-3 1.207H15v-3.019h7.2zM35.4 12c1.656 0 3 1.352 3 3.019a3.01 3.01 0 0 1-3 3.019 3.01 3.01 0 0 1-3-3.02 3.01 3.01 0 0 1 3-3.018z"/>
    </g>
</svg>
