<svg xmlns="http://www.w3.org/2000/svg" width="56" height="56" viewBox="0 0 56 56">
    <g fill="none" fill-rule="evenodd">
        <circle cx="28" cy="28" r="28" fill="#136BB8"/>
        <path fill="#0D4474" d="M30.848 55.857C43.34 54.595 53.406 45.123 55.57 32.92L42.37 17.32l-27.492 1.64-1.446 12.512 4.74 5.99-1.852 1.464 14.528 16.93z"/>
        <g fill="#FFF" fill-rule="nonzero">
            <path d="M17.5 39.5a1.5 1.5 0 0 1 0-3h21a1.5 1.5 0 0 1 0 3h-21zM43 23v7.5a1.5 1.5 0 0 1-1.5 1.5h-27a1.5 1.5 0 0 1-1.5-1.5v-12a1.5 1.5 0 0 1 1.5-1.5h27a1.5 1.5 0 0 1 1.5 1.5V23zm-7.5-3H16v9h24v-9h-4.5z"/>
        </g>
    </g>
</svg>
