<svg xmlns="http://www.w3.org/2000/svg" width="56" height="70" viewBox="0 0 56 70">
    <g fill="none" fill-rule="evenodd">
        <path fill="#E0E0E0" d="M8 62h40v8H8z"/>
        <path fill="#F1F1F1" d="M37.76 1.748a12.062 12.062 0 0 0-3.993 3.981A23.04 23.04 0 0 0 28 5C15.297 5 5 15.297 5 28s10.297 23 23 23 23-10.297 23-23a23.04 23.04 0 0 0-.729-5.767 12.062 12.062 0 0 0 3.981-3.993A27.941 27.941 0 0 1 56 28c0 15.464-12.536 28-28 28S0 43.464 0 28 12.536 0 28 0c3.433 0 6.721.618 9.76 1.748zM44 22c-5.523 0-10-4.477-10-10S38.477 2 44 2s10 4.477 10 10-4.477 10-10 10z"/>
    </g>
</svg>
