<svg xmlns="http://www.w3.org/2000/svg" width="56" height="56" viewBox="0 0 56 56">
    <defs>
        <linearGradient id="a" x1="0%" x2="102%" y1="0%" y2="101%">
            <stop offset="0%" stop-color="#FFF3D1"/>
            <stop offset="100%" stop-color="#F9219E"/>
        </linearGradient>
    </defs>
    <g fill="none" fill-rule="evenodd">
        <circle cx="28" cy="28" r="28" fill="url(#a)"/>
        <path fill="#FFF" d="M28 51C15.297 51 5 40.703 5 28S15.297 5 28 5s23 10.297 23 23-10.297 23-23 23zm9-23.547h-3.2c-.002 0-.538.142-.8-.403s-.863-1.968-1.2-2.415c-.337-.447-2.58-2.118-4.4-2.415-.933-.152-1.798.136-2.4.403-.664.294-3.2 1.61-3.2 1.61l.8 1.61 3.2-1.61s.764-.274 1.2 0c.436.273.8.402.8.402l-2.4 4.025s-.762 1.376.4 2.415c1.162 1.04 3.2 2.416 3.2 2.416s.805.483.4 1.61c-.405 1.127-2 5.232-2 5.232h2l2-4.83s.696-1.574 0-2.415-2.4-2.415-2.4-2.415-.362-.244 0-.805c.362-.562 1.6-2.818 1.6-2.818l1.2 1.61s.81.805 1.2.805h4v-2.012zm-13.2 5.233H19v2.012h4.8c.003 0 .964.077 2-.805.36-.305.8-.805.8-.805L25 31.881s-.624.805-1.2.805zM32.6 19c-1.104 0-2 .902-2 2.013 0 1.11.896 2.012 2 2.012s2-.901 2-2.012S33.704 19 32.6 19z"/>
    </g>
</svg>
