<svg xmlns="http://www.w3.org/2000/svg" width="56" height="56" viewBox="0 0 56 56">
    <defs>
        <linearGradient id="a" x1="0%" x2="102%" y1="0%" y2="101%">
            <stop offset="0%" stop-color="#FFB419"/>
            <stop offset="100%" stop-color="#E43971"/>
        </linearGradient>
    </defs>
    <g fill="none" fill-rule="evenodd">
        <circle cx="28" cy="28" r="28" fill="url(#a)"/>
        <path fill="#FFF" d="M28 51C15.297 51 5 40.703 5 28S15.297 5 28 5s23 10.297 23 23-10.297 23-23 23zm8.848-23.626c.156-.08.2-.287.093-.436l-1.183-1.62a.307.307 0 0 1-.007-.353l1.16-1.633a.302.302 0 0 0-.105-.44l-1.768-.948a.293.293 0 0 1-.153-.315l.333-1.977a.304.304 0 0 0-.288-.353l-2.004-.083a.304.304 0 0 1-.277-.218l-.554-1.931a.305.305 0 0 0-.411-.194l-1.842.792a.312.312 0 0 1-.346-.076l-1.34-1.488a.306.306 0 0 0-.456.003l-1.316 1.513a.304.304 0 0 1-.342.08l-1.852-.765a.301.301 0 0 0-.405.197l-.533 1.931a.312.312 0 0 1-.27.225l-2.004.114a.305.305 0 0 0-.28.357l.36 1.97a.298.298 0 0 1-.15.318l-1.751.97a.305.305 0 0 0-.1.442l1.183 1.62c.076.104.08.246.007.35l-1.16 1.633a.305.305 0 0 0 .104.444l1.77.944c.114.062.176.19.152.319l-.333 1.976a.301.301 0 0 0 .288.35l2 .087c.13.004.242.092.277.218l.56 1.924a.305.305 0 0 0 .413.194l1.845-.793a.312.312 0 0 1 .346.076l1.336 1.489a.306.306 0 0 0 .457-.004l1.315-1.512a.305.305 0 0 1 .343-.08l1.852.765a.301.301 0 0 0 .408-.197l.526-1.932a.312.312 0 0 1 .277-.225l2-.114a.302.302 0 0 0 .281-.356l-.36-1.97a.298.298 0 0 1 .149-.318l1.755-.97zm-3.406-2.177a5.444 5.444 0 0 1-5.438 5.442 5.451 5.451 0 0 1-5.441-5.442 5.448 5.448 0 0 1 5.441-5.438 5.447 5.447 0 0 1 5.438 5.438zm.97 13.624l-1.507-4.666a1.571 1.571 0 0 1-1.571.402l-1.28-.388-.984.9-.1.087 1.585 4.911a.225.225 0 0 0 .391.07l1.156-1.482a.225.225 0 0 1 .236-.08l1.796.527c.173.048.336-.115.277-.28zm-7.467-3.745l-.987-.907-1.28.388a1.582 1.582 0 0 1-1.568-.402l-1.513 4.67a.225.225 0 0 0 .277.283l1.8-.526a.218.218 0 0 1 .239.08l1.152 1.481a.225.225 0 0 0 .392-.069l1.585-4.915a.763.763 0 0 1-.097-.083zm4.527-10.47a.43.43 0 0 0-.242-.759l-2.052-.148-.776-1.904a.433.433 0 0 0-.796 0l-.772 1.904-2.049.148a.431.431 0 0 0-.25.758l1.572 1.326-.491 1.997a.43.43 0 0 0 .644.471l1.744-1.087L29.75 28.4a.43.43 0 0 0 .643-.47l-.491-1.998 1.571-1.326z"/>
    </g>
</svg>
