<svg xmlns="http://www.w3.org/2000/svg" width="56" height="56" viewBox="0 0 56 56">
    <defs>
        <linearGradient id="a" x1="0%" x2="102%" y1="0%" y2="101%">
            <stop offset="0%" stop-color="#FAFE2F"/>
            <stop offset="100%" stop-color="#F18B10"/>
        </linearGradient>
    </defs>
    <g fill="none" fill-rule="evenodd">
        <circle cx="28" cy="28" r="28" fill="url(#a)"/>
        <path fill="#FFF" d="M28 51C15.297 51 5 40.703 5 28S15.297 5 28 5s23 10.297 23 23-10.297 23-23 23zm-9-26.575v12.108c2.776-1.478 5.759-1.323 8.948.467 2.97-1.442 6.486-1.244 9.185-.467V24.425c-2.728-1.327-5.75-1.195-9.066.397-3.175-3.203-5.753-3.88-6.851-3.818.022 1.347.022 2.268 0 2.763L19 24.425zm3.2-2.358h.328c1.344.368 3.012 1.623 5.005 3.765v10.101c-2.018-1.28-3.796-1.778-5.333-1.496v-12.37z"/>
    </g>
</svg>
